<svg xmlns="http://www.w3.org/2000/svg" viewBox="0 0 900 900" role="img" aria-label="Black Nigerian male doctor in clinical scrubs beside medical equipment">
  <rect width="900" height="900" fill="#0f9fbd"/>
  <rect x="32" y="104" width="365" height="520" rx="22" fill="#eff6ff"/>
  <rect x="66" y="139" width="296" height="214" rx="14" fill="#17324d"/>
  <path d="M86 258c45-45 61 44 105 0s63 44 103 0" fill="none" stroke="#85efac" stroke-width="12"/>
  <rect x="93" y="405" width="246" height="135" rx="16" fill="#b6e34b"/>
  <circle cx="160" cy="500" r="28" fill="#fff"/>
  <circle cx="263" cy="500" r="28" fill="#fff"/>
  <path d="M441 845c10-127 18-255 28-382h275c12 123 25 250 38 382z" fill="#93c5fd"/>
  <path d="M514 360c-24 24-32 76-4 112 35 45 130 45 166-1 29-37 20-88-4-111-39-38-119-38-158 0z" fill="#3b2416"/>
  <circle cx="592" cy="300" r="94" fill="#4b2b1a"/>
  <path d="M503 285c14-76 67-118 137-93 55 20 74 74 58 129-65-42-127-50-195-36z" fill="#0f172a"/>
  <path d="M526 319c23 49 111 55 141 1 0 78-28 134-72 134-42 0-69-55-69-135z" fill="#5a3320"/>
  <path d="M521 229h150c18 0 32 14 32 32v29H489v-29c0-18 14-32 32-32z" fill="#7dd3fc"/>
  <path d="M476 475c-49 42-83 130-90 246l86 15 41-192z" fill="#93c5fd"/>
  <path d="M727 475c55 50 85 139 90 246l-89 15-42-192z" fill="#93c5fd"/>
  <path d="M504 520c54 44 119 44 174 0" fill="none" stroke="#0f766e" stroke-width="14"/>
  <circle cx="504" cy="520" r="13" fill="#0f766e"/>
  <circle cx="678" cy="520" r="13" fill="#0f766e"/>
  <path d="M468 720c-70 8-122 5-157-10-43-18-67-55-50-86 18-33 60-19 105-5 34 11 70 12 121 7z" fill="#5a3320"/>
  <path d="M700 720c70 8 122 5 157-10 43-18 67-55 50-86-18-33-60-19-105-5-34 11-70 12-121 7z" fill="#5a3320"/>
</svg>
