<svg xmlns="http://www.w3.org/2000/svg" viewBox="0 0 900 900" role="img" aria-label="Black Nigerian male neurologist portrait">
  <rect width="900" height="900" fill="#e0f2fe"/>
  <circle cx="450" cy="282" r="126" fill="#4b2b1a"/>
  <path d="M329 245c18-89 86-134 162-113 65 18 98 75 89 143-78-46-161-56-251-30z" fill="#111827"/>
  <path d="M350 304c25 82 175 82 200 0 3 101-37 170-100 170s-103-69-100-170z" fill="#5a3320"/>
  <path d="M236 840c20-179 53-317 100-415h228c49 100 82 238 100 415z" fill="#f8fafc"/>
  <path d="M340 470h220l-43 370H383z" fill="#1e3a8a"/>
  <path d="M452 526c-70 55-105 120-105 195" stroke="#0f766e" stroke-width="14" fill="none"/>
  <path d="M452 526c70 55 105 120 105 195" stroke="#0f766e" stroke-width="14" fill="none"/>
  <circle cx="347" cy="721" r="18" fill="#0f766e"/>
  <circle cx="557" cy="721" r="18" fill="#0f766e"/>
  <circle cx="372" cy="330" r="9" fill="#111827"/>
  <circle cx="528" cy="330" r="9" fill="#111827"/>
  <path d="M400 395c34 22 67 22 101 0" fill="none" stroke="#2f1b13" stroke-width="12" stroke-linecap="round"/>
</svg>
